<?xml version="1.0" encoding="UTF-8"?>
<svg id="Layer_1" data-name="Layer 1" xmlns="http://www.w3.org/2000/svg" viewBox="0 0 1321.9974758 401.0450881">
  <defs>
    <style>
      .cls-1 {
        fill: #a723ff;
      }
    </style>
  </defs>
  <g>
    <path d="M504.8310039,259.0102465l29.4742136-14.3984056c8.9143282,19.882483,28.4509035,30.5047301,55.5253828,30.5047301,26.7357781,0,47.3028699-12.6832802,47.3028699-35.3041986,0-25.3593539-23.3055273-29.8201212-50.3872131-34.958291-34.6195897-6.8532951-77.4616924-18.1673576-77.4616924-66.8394452,0-38.0426341,34.6195897-66.8322388,78.1463013-66.8322388,34.9654974,0,66.1548364,16.4450258,79.8614266,47.9802724l-29.1283059,15.0830144c-9.2602358-18.8519664-26.7357781-30.5047301-52.1023384-30.5047301-23.3055273,0-42.1574938,13.7065903-42.1574938,33.250372,0,24.6747451,24.3360438,30.1588225,52.095132,35.6428999,34.2808885,6.8532951,76.0924746,18.1673576,76.0924746,66.8394452,0,40.4423684-35.9888075,68.5473642-82.2611609,68.5473642-38.727243,0-71.2930061-17.4755423-84.9995964-49.0107889Z"/>
    <path d="M690.914902,340.9254997l28.1049958-15.4217157c9.598937,18.1673576,28.4509035,28.7896047,51.4177296,28.7896047,35.6428999,0,54.1561651-26.7357781,54.1561651-63.0632868v-14.7443132c-9.9448447,18.8519664-27.7662946,30.1660289-53.132855,30.1660289-51.4105232,0-76.4311759-33.9349809-76.4311759-83.2916774v-87.0606294h33.5890732v85.345504c0,31.5352466,16.4522322,53.132855,46.9569623,53.132855,29.48142,0,48.6720877-24.6819515,48.6720877-55.5325892v-82.9457698h34.2736821v154.5846835c0,56.2099917-32.9044644,94.9444411-87.3993307,94.9444411-35.6501063,0-65.1243199-15.0830144-80.2073343-44.9031357Z"/>
    <path d="M919.1635003,223.021439v81.2306444h-33.9349809v-84.6608952c0-49.0107889,29.1355124-87.3993307,83.2916774-87.3993307,54.8407739,0,84.6608952,38.3885418,84.6608952,87.053423v85.0068028h-33.9349809v-80.8919432c0-31.5280402-17.1368411-58.6097259-50.7259143-58.6097259-32.9044644,0-49.3566965,27.0816857-49.3566965,58.2710247Z"/>
    <path d="M1068.220868,304.2520833l58.2710247-87.0606294c7.8838117-11.9986713,11.6527637-20.5670918,11.6527637-29.1355124,0-8.9071218-4.1148596-17.4755423-11.6527637-29.1283059l-55.8712905-84.3221939h40.788276l47.6415712,71.977615c5.1381698,8.9143282,9.2530294,17.4827487,11.3140624,26.3970769h19.1906677c2.0538266-8.9143282,5.829985-17.4827487,11.3140624-26.3970769l47.2956635-71.977615h41.1341837l-56.2099917,84.3221939c-7.5451104,11.6527637-10.9681548,20.2211842-10.9681548,29.1283059,0,8.5684205,3.0843431,17.4827487,10.9681548,29.1355124l58.6097259,87.0606294h-41.8187925l-48.6720877-72.6622239c-5.8227786-8.9143282-9.598937-17.8214499-11.6527637-26.7357781h-19.1906677c-2.061033,8.9143282-5.829985,17.8214499-11.6599701,26.7357781l-48.32618,72.6622239h-42.1574938Z"/>
  </g>
  <g>
    <path class="cls-1" d="M175.2365329,14.6460121v24.8902504c0,15.0105313-3.9615008,29.806077-11.4785644,42.7879377l-64.1702542,111.2063401-1.0977951-.8832466c-8.0421467-6.467043-16.9672488-11.6453384-26.5367246-15.3204832l-1.3124893-.5010502,64.1941415-111.2063401c4.5818417-7.8991144,6.9921262-16.9194742,6.9921262-26.0831577V14.6460121h33.40956Z"/>
    <path class="cls-1" d="M420.9161482,224.2192813l-64.1941415,111.1824528c-4.5579545,7.9227103-6.9682389,16.9433615-6.9682389,26.0831577v24.7472181h-33.40956v-24.7472181c0-14.986644,3.9613552-29.7821898,11.4546772-42.7879377l64.2178831-111.1824528,1.0739078.8832466c7.9945178,6.467043,16.9196199,11.6214511,26.5367246,15.3204832l1.2887477.5010502Z"/>
    <path class="cls-1" d="M456.2824258,183.8177407v33.40956h-1.1931986c-30.4980798,0-58.8723768-16.3945367-74.1214895-42.7879377l-53.5268705-92.7356494,1.3124893-.5010502c9.5694759-3.6990321,18.4945779-8.8534402,26.512983-15.3443705l1.0976495-.8832466,53.5507578,92.7595367c9.2831199,16.0842935,26.6083864,26.0831577,45.1744805,26.0831577h1.1931986Z"/>
    <path class="cls-1" d="M164.1158406,319.3174406l-1.288602.5249375c-9.6172504,3.7229194-18.5423524,8.9012147-26.5367246,15.3443705l-1.0739078.8832466-53.5507578-92.7595367c-9.2831199-16.0842935-26.6082408-26.0831577-45.1744805-26.0831577h-1.1931986v-33.40956h1.1931986c30.4982254,0,58.8723768,16.3945367,74.0976023,42.7879377l53.5268705,92.7117622Z"/>
    <path class="cls-1" d="M367.9857313,30.8972252l-.5965993,1.0262789c-15.2489671,26.393401-43.6471514,42.788229-74.0976023,42.788229h-111.4208886l.5965993-1.598991c3.5557084-9.8319446,5.5364589-20.1652307,5.8467021-30.6651451l.0238873-1.145424h104.9536999c18.5662397,0,35.867619-9.9991555,45.1507389-26.083449l.5965993-1.0262789,28.9468634,16.70478Z"/>
    <path class="cls-1" d="M309.6860665,326.3333084l-.572712,1.598991c-3.5795957,9.8558319-5.5364589,20.1649394-5.8467021,30.6412578l-.0476289,1.1693113h-104.906071c-18.5899813,0-35.9152479,9.9988642-45.1983678,26.083449l-.5965993,1.0262789-28.947009-16.70478.5965993-1.0262789c15.2491127-26.3936923,43.647297-42.788229,74.1453768-42.788229h111.373114Z"/>
    <path class="cls-1" d="M316.1532552,88.0993862h-140.7259154l-64.9098858,112.4231346,64.9098858,112.3992473h140.7259154l64.8861442-112.3992473-64.8861442-112.4231346ZM194.7094695,279.512208l-45.6040145-78.9896873,45.6040145-79.0135745h102.1377687l45.6279018,79.0135745-45.6279018,78.9896873h-102.1377687Z"/>
  </g>
</svg>